<svg xmlns="http://www.w3.org/2000/svg" viewBox="0 0 312.91499999999996 317" style="max-height: 500px" width="312.91499999999996" height="317">
 <g class="layer">
  <title>Layer 1</title>
  <path id="svg_1" fill="#212651" d="m245.97,78.54l-11.3,-74.1c-0.7,-4.3 -4.1,-5.7 -7.6,-3.2l-60.3,43.8c-2.6,1.9 -2.1,5.9 0.9,7.1l14.1,5.6c2.1,0.8 3.1,3.3 2.2,5.4l-76.4,181.9c-0.4,1 -1.3,1.5 -2.4,1.5c-1,0 -1.9,-0.6 -2.4,-1.5l-57.6,-82.6c-0.4,-0.8 -1.1,-1.3 -2,-1.3l-40.9,2.4c-0.8,0 -1.4,0.3 -1.9,1c-0.4,0.7 -0.5,1.4 -0.2,2.1l98.4,144.9c0.4,0.8 1.1,1.3 2,1.3l18.5,0c0.9,0 1.7,-0.5 2,-1.3l99.3,-232.1c0.9,-2 3.2,-3 5.2,-2.2l14.8,5.9c3,1 6.1,-1.5 5.6,-4.6z"/>
  <path id="svg_2" fill="#D67C3E" d="m156.37,95.14l-12.9,-4.7c-1.8,-0.7 -3.8,0.2 -4.5,2l-48.3,107.5l-28.1,-32.7l40.5,-87.8c0.7,-1.8 -0.2,-3.9 -2.1,-4.6l-12.3,-4.5c-2.6,-0.9 -3.1,-4.4 -0.9,-6.1l55.5,-42.7c2.1,-1.6 5.1,-0.4 5.6,2.2l12.2,67.5c0.4,2.7 -2.2,4.9 -4.7,3.9z"/>
 </g>
</svg>